<svg xmlns="http://www.w3.org/2000/svg" width="512" height="512" viewBox="0 0 512 512">
  <defs>
    <linearGradient id="bg" x1="0" y1="0" x2="0" y2="1">
      <stop offset="0" stop-color="#2b86ff"/>
      <stop offset="0.55" stop-color="#15315c"/>
      <stop offset="1" stop-color="#0c2340"/>
    </linearGradient>
    <radialGradient id="slime" cx="0.38" cy="0.32" r="0.85">
      <stop offset="0" stop-color="#ffd27a"/>
      <stop offset="0.45" stop-color="#ff7a18"/>
      <stop offset="1" stop-color="#b4540a"/>
    </radialGradient>
  </defs>
  <rect width="512" height="512" rx="96" fill="url(#bg)"/>
  <!-- net -->
  <rect x="250" y="150" width="12" height="210" fill="#ffffff" opacity="0.85"/>
  <rect x="240" y="146" width="32" height="10" fill="#ffffff"/>
  <!-- floor -->
  <rect x="40" y="360" width="432" height="40" rx="8" fill="#d8643a"/>
  <!-- slime -->
  <path d="M120 360 a96 96 0 0 1 192 0 Z" fill="url(#slime)"/>
  <circle cx="232" cy="300" r="22" fill="#ffffff"/>
  <circle cx="238" cy="304" r="11" fill="#0a0a16"/>
  <circle cx="234" cy="300" r="3.5" fill="#ffffff"/>
  <!-- volleyball -->
  <g transform="translate(360,150)">
    <circle r="62" fill="#fbfbfb" stroke="#cdcdcd" stroke-width="3"/>
    <path d="M-62 -10 A70 70 0 0 1 10 -60" fill="none" stroke="#1f6fd6" stroke-width="16" stroke-linecap="round"/>
    <path d="M60 16 A70 70 0 0 1 -16 60" fill="none" stroke="#ffd23b" stroke-width="16" stroke-linecap="round"/>
    <path d="M-30 -54 A62 62 0 0 1 -8 62" fill="none" stroke="#bcbcbc" stroke-width="3"/>
  </g>
</svg>
